<?xml version="1.0" encoding="UTF-8"?><svg id="_레이어_2" xmlns="http://www.w3.org/2000/svg" viewBox="0 0 250.62 257.96"><style>
	</style><g id="Asset"><path d="m128.5,0C57.53,0,0,57.53,0,128.5v124.44c0,2.77,2.25,5.02,5.02,5.02h19.32c2.77,0,5.02-2.25,5.02-5.02v-124.44c0-54.75,44.39-99.14,99.14-99.14h92.76v100.1c0,54.75-44.39,99.14-99.14,99.14h-36.72v-75.3h98.84c2.77,0,5.02-2.25,5.02-5.02v-19.32c0-2.77-2.25-5.02-5.02-5.02h-96.49c6.71-21.82,27.05-37.73,51.04-37.73h48.18c2.77,0,5.02-2.25,5.02-5.02v-19.32c0-2.77-2.25-5.02-5.02-5.02h-48.18c-45.7,0-82.75,37.05-82.75,82.75v108.32c0,5.55,4.5,10.04,10.04,10.04h56.04c70.97,0,128.5-57.53,128.5-128.5V10.04c0-5.55-4.5-10.04-10.04-10.04h-112.08Z"/></g></svg>