<?xml version="1.0" encoding="UTF-8"?><svg id="asset" xmlns="http://www.w3.org/2000/svg" viewBox="0 0 1200 178.15"><style>
	</style><path d="M88.74,0C39.73,0,0,39.73,0,88.74v85.94c0,1.92,1.55,3.47,3.47,3.47h13.34c1.92,0,3.47-1.55,3.47-3.47V88.74c0-37.81,30.65-68.47,68.47-68.47h64.06V89.41c0,37.81-30.65,68.47-68.47,68.47h-25.36v-52H127.24c1.92,0,3.47-1.55,3.47-3.47v-13.34c0-1.92-1.55-3.47-3.47-3.47H60.6c4.63-15.07,18.68-26.06,35.25-26.06h33.28c1.92,0,3.47-1.55,3.47-3.47v-13.34c0-1.92-1.55-3.47-3.47-3.47h-33.28c-31.56,0-57.15,25.59-57.15,57.15v74.8c0,3.83,3.11,6.94,6.94,6.94h38.7c49.01,0,88.74-39.73,88.74-88.74V6.94c0-3.83-3.11-6.94-6.94-6.94H88.74Z"/><g><g><path d="M246.66,144.07V40.57c0-1.47,.88-2.36,2.36-2.36h68.85c1.48,0,2.36,.88,2.36,2.36v19.9c0,1.33-.88,2.21-2.36,2.21h-43.64v20.79h36.56c1.47,0,2.36,.88,2.36,2.36v19.9c0,1.33-.89,2.21-2.36,2.21h-36.56v36.12c0,1.48-.88,2.36-2.36,2.36h-22.85c-1.47,0-2.36-.88-2.36-2.36Z"/><path d="M328.77,44.11c0-8.26,6.34-13.86,14.6-13.86s14.6,5.6,14.6,13.86-6.34,13.71-14.6,13.71-14.6-5.46-14.6-13.71Zm1.33,99.96V70.35c0-1.33,.89-2.21,2.36-2.21h21.82c1.48,0,2.36,.88,2.36,2.21v73.72c0,1.48-.88,2.36-2.36,2.36h-21.82c-1.47,0-2.36-.88-2.36-2.36Z"/><path d="M370.8,144.07V70.35c0-1.33,.89-2.21,2.36-2.21h18.43c1.48,0,2.51,.74,2.51,2.21l.29,6.93c5.75-7.08,14.45-10.61,24.77-10.61,18.58,0,29.04,10.76,29.04,28.75v48.65c0,1.48-.88,2.36-2.36,2.36h-21.82c-1.47,0-2.36-.88-2.36-2.36v-38.78c0-10.91-3.39-15.33-11.21-15.33s-13.12,5.75-13.12,17.25v36.86c0,1.48-.88,2.36-2.36,2.36h-21.82c-1.47,0-2.36-.88-2.36-2.36Z"/><path d="M456.43,127.41c-.59-1.33,.15-2.36,1.62-2.65l17.69-3.69c1.33-.29,2.21,.15,2.95,1.33,2.65,4.28,6.93,6.19,11.94,6.19,4.57,0,7.52-1.33,7.52-4.13,0-2.21-1.77-3.83-8.26-5.6l-2.95-.74c-20.35-5.31-27.42-15.33-27.42-27.28,0-14.15,13.12-24.18,32.14-24.18,16.66,0,27.42,6.19,32.29,19.61,.59,1.47,0,2.51-1.62,2.8l-17.1,3.98c-1.33,.29-2.21-.29-2.8-1.47-2.21-3.69-5.01-5.6-9.73-5.6-3.54,0-6.19,1.18-6.19,3.98,0,2.65,2.8,4.42,8.7,5.9l2.8,.74c20.64,5.16,27.28,13.12,27.28,26.54,0,15.04-14.15,24.77-33.76,24.77-17.69,0-30.08-7.22-35.09-20.49Z"/><path d="M530.55,107.21c0-24.03,15.63-40.54,40.54-40.54,17.54,0,31.55,7.22,37.3,24.03,.44,1.48-.15,2.65-1.62,2.95l-18.28,5.16c-1.33,.29-2.36-.15-3.1-1.48-2.8-5.16-7.22-7.37-12.83-7.37-10.03,0-15.04,7.52-15.04,17.25s5.01,17.4,15.04,17.4c5.46,0,10.32-2.36,12.83-7.81,.74-1.33,1.62-1.92,2.95-1.62l19.9,5.01c1.48,.29,2.06,1.47,1.48,2.95-6.04,16.81-20.94,24.77-38.63,24.77-24.92,0-40.54-16.51-40.54-40.69Z"/><path d="M618.68,144.07V38.21c0-1.48,.89-2.36,2.36-2.36h21.82c1.48,0,2.36,.88,2.36,2.36v37.74c5.46-6.34,13.12-9.29,22.26-9.29,18.13,0,28.6,10.76,28.6,28.75v48.65c0,1.48-.88,2.36-2.36,2.36h-21.82c-1.47,0-2.36-.88-2.36-2.36v-38.78c0-10.91-3.39-15.33-11.21-15.33s-13.12,5.75-13.12,17.25v36.86c0,1.48-.88,2.36-2.36,2.36h-21.82c-1.47,0-2.36-.88-2.36-2.36Z"/><path d="M708.39,44.11c0-8.26,6.34-13.86,14.6-13.86s14.6,5.6,14.6,13.86-6.34,13.71-14.6,13.71-14.6-5.46-14.6-13.71Zm1.33,99.96V70.35c0-1.33,.88-2.21,2.36-2.21h21.82c1.47,0,2.36,.88,2.36,2.21v73.72c0,1.48-.88,2.36-2.36,2.36h-21.82c-1.48,0-2.36-.88-2.36-2.36Z"/><path d="M746.35,107.21c0-24.33,14.6-40.54,36.42-40.54,9.88,0,17.84,3.83,23.44,10.61l.29-6.93c0-1.48,1.03-2.21,2.36-2.21h18.58c1.48,0,2.36,.88,2.36,2.21v73.72c0,1.48-.88,2.36-2.36,2.36h-18.58c-1.33,0-2.36-.88-2.36-2.36l-.29-6.93c-5.6,6.93-13.56,10.76-23.44,10.76-21.82,0-36.42-16.37-36.42-40.69Zm58.97,0c0-10.17-6.49-17.25-16.07-17.25s-16.07,7.08-16.07,17.25,6.49,17.4,16.07,17.4,16.07-7.22,16.07-17.4Z"/></g><g><path d="M882.88,144.81V39.69c0-.89,.59-1.48,1.62-1.48h32.29c36.86,0,54.55,21.08,54.55,54.11s-17.69,54.11-54.55,54.11h-32.29c-1.03,0-1.62-.59-1.62-1.62Zm12.39-94.95v84.92h20.05c29.05,0,43.2-15.92,43.2-42.46s-14.15-42.46-43.2-42.46h-20.05Z"/><path d="M980.18,109.13c0-22.41,14.89-38.63,37.74-38.63s37.89,16.22,37.89,38.63-15.04,38.78-37.89,38.78-37.74-16.37-37.74-38.78Zm63.4,0c0-16.51-10.47-27.72-25.65-27.72s-25.65,11.2-25.65,27.72,10.47,27.87,25.65,27.87,25.65-11.2,25.65-27.87Z"/><path d="M1064.36,109.13c0-22.71,14.45-38.63,37.01-38.63,15.48,0,26.39,6.78,31.55,20.35,.29,.88,0,1.62-1.03,1.92l-7.37,2.21c-.89,.3-1.47-.15-1.92-1.03-3.83-8.26-10.62-12.53-20.64-12.53-17.4,0-25.51,12.97-25.51,27.72s8.26,27.87,25.51,27.87c10.32,0,17.25-4.72,21.08-13.27,.44-.89,1.03-1.18,1.92-.89l7.96,2.06c1.03,.29,1.33,1.03,.88,1.92-5.45,14.3-17.1,21.08-32.44,21.08-22.7,0-37.01-16.07-37.01-38.78Z"/><path d="M1142.21,128.15c-.29-.89,.15-1.62,1.03-1.92l7.67-2.06c1.03-.29,1.62,0,1.92,.89,3.83,8.7,10.32,12.09,20.05,12.09,8.55,0,14.89-3.24,14.89-10.17,0-5.75-4.42-8.85-14.6-11.65l-4.42-1.18c-16.37-4.57-23.15-12.24-23.15-23,0-11.94,10.32-20.64,25.95-20.64,12.83,0,22.85,5.75,27.28,17.99,.44,.89,0,1.62-.89,1.92l-7.67,2.36c-1.03,.44-1.62,0-2.06-.88-3.24-7.08-8.85-10.76-16.81-10.76s-13.71,3.69-13.71,10.03c0,5.75,4.13,8.84,15.33,11.79l4.13,1.03c16.51,4.28,22.85,11.5,22.85,22.71,0,12.83-11.06,21.23-26.69,21.23s-26.39-6.49-31.11-19.76Z"/></g></g></svg>